<svg width="119" height="27" viewBox="0 0 119 27" fill="none" xmlns="http://www.w3.org/2000/svg">
<path d="M9.70991 26.7349C7.96383 26.7349 6.39235 26.4356 4.99548 25.8369C3.59861 25.2133 2.50107 24.3403 1.70286 23.2178C0.904646 22.0953 0.50554 20.7858 0.50554 19.2891H5.07031C5.17009 20.4116 5.60661 21.3345 6.37988 22.0579C7.17809 22.7813 8.2881 23.143 9.70991 23.143C11.1816 23.143 12.329 22.7938 13.1522 22.0953C13.9754 21.3719 14.3869 20.449 14.3869 19.3265C14.3869 18.4535 14.125 17.7426 13.6012 17.1938C13.1023 16.645 12.4662 16.221 11.693 15.9217C10.9446 15.6223 9.89699 15.2981 8.55001 14.9488C6.85381 14.4998 5.46942 14.0508 4.39682 13.6019C3.34917 13.1279 2.45118 12.4045 1.70286 11.4317C0.954534 10.4589 0.580372 9.1618 0.580372 7.54044C0.580372 6.04379 0.954534 4.73422 1.70286 3.61174C2.45118 2.48926 3.49883 1.62868 4.84581 1.03003C6.1928 0.431367 7.7518 0.132037 9.52283 0.132037C12.0422 0.132037 14.1001 0.768112 15.6965 2.04026C17.3179 3.28747 18.2159 5.00861 18.3905 7.20369H13.676C13.6012 6.25581 13.1522 5.44513 12.329 4.77164C11.5059 4.09815 10.4208 3.7614 9.07384 3.7614C7.85158 3.7614 6.85381 4.07321 6.08055 4.69681C5.30728 5.32041 4.92065 6.2184 4.92065 7.39077C4.92065 8.18898 5.15762 8.85 5.63155 9.37383C6.13043 9.87271 6.75404 10.2718 7.50236 10.5711C8.25068 10.8705 9.27339 11.1947 10.5705 11.544C12.2916 12.0179 13.6885 12.4918 14.7611 12.9658C15.8586 13.4397 16.7816 14.1756 17.5299 15.1733C18.3032 16.1462 18.6898 17.4557 18.6898 19.102C18.6898 20.4241 18.3281 21.6713 17.6047 22.8436C16.9063 24.016 15.8711 24.9639 14.4992 25.6873C13.1522 26.3857 11.5558 26.7349 9.70991 26.7349ZM28.6992 9.33641V20.7483C28.6992 21.5216 28.8738 22.0828 29.223 22.4321C29.5972 22.7563 30.2208 22.9185 31.0938 22.9185H33.713V26.473H30.3455C28.4248 26.473 26.9531 26.024 25.9304 25.126C24.9077 24.228 24.3963 22.7688 24.3963 20.7483V9.33641H21.9643V5.85671H24.3963V0.730697H28.6992V5.85671H33.713V9.33641H28.6992ZM46.5867 26.8098C44.6411 26.8098 42.8825 26.3732 41.3111 25.5002C39.7396 24.6022 38.5049 23.355 37.6069 21.7586C36.7089 20.1372 36.2599 18.2664 36.2599 16.1462C36.2599 14.0508 36.7214 12.1925 37.6443 10.5711C38.5672 8.94978 39.8269 7.70257 41.4233 6.82953C43.0197 5.95649 44.8032 5.51996 46.7738 5.51996C48.7444 5.51996 50.5279 5.95649 52.1243 6.82953C53.7208 7.70257 54.9804 8.94978 55.9034 10.5711C56.8263 12.1925 57.2878 14.0508 57.2878 16.1462C57.2878 18.2415 56.8138 20.0998 55.866 21.7212C54.9181 23.3425 53.621 24.6022 51.9747 25.5002C50.3533 26.3732 48.5573 26.8098 46.5867 26.8098ZM46.5867 23.1056C47.6843 23.1056 48.707 22.8436 49.6549 22.3198C50.6277 21.796 51.4134 21.0103 52.0121 19.9626C52.6107 18.9149 52.9101 17.6428 52.9101 16.1462C52.9101 14.6495 52.6232 13.3898 52.0495 12.3671C51.4758 11.3195 50.715 10.5337 49.7671 10.0099C48.8192 9.48608 47.7965 9.22416 46.699 9.22416C45.6015 9.22416 44.5787 9.48608 43.6309 10.0099C42.7079 10.5337 41.9721 11.3195 41.4233 12.3671C40.8745 13.3898 40.6002 14.6495 40.6002 16.1462C40.6002 18.3662 41.1614 20.0873 42.2839 21.3096C43.4313 22.5069 44.8656 23.1056 46.5867 23.1056ZM65.7698 8.85C66.3934 7.80235 67.2166 6.99167 68.2393 6.41795C69.2869 5.81929 70.5217 5.51996 71.9435 5.51996V9.93507H70.8584C69.1872 9.93507 67.915 10.3591 67.042 11.2072C66.1939 12.0553 65.7698 13.527 65.7698 15.6223V26.473H61.5044V5.85671H65.7698V8.85ZM94.7595 15.6597C94.7595 16.433 94.7096 17.1314 94.6098 17.755H78.8576C78.9823 19.4014 79.5934 20.7234 80.691 21.7212C81.7885 22.7189 83.1355 23.2178 84.7319 23.2178C87.0268 23.2178 88.6481 22.2575 89.596 20.3368H94.1982C93.5746 22.2325 92.4396 23.7915 90.7933 25.0138C89.172 26.2111 87.1515 26.8098 84.7319 26.8098C82.7613 26.8098 80.9903 26.3732 79.4188 25.5002C77.8723 24.6022 76.65 23.355 75.752 21.7586C74.879 20.1372 74.4425 18.2664 74.4425 16.1462C74.4425 14.0259 74.8665 12.1676 75.7146 10.5711C76.5877 8.94978 77.7975 7.70257 79.344 6.82953C80.9155 5.95649 82.7114 5.51996 84.7319 5.51996C86.6776 5.51996 88.4112 5.94401 89.9328 6.79211C91.4544 7.64021 92.6392 8.83753 93.4873 10.3841C94.3354 11.9057 94.7595 13.6642 94.7595 15.6597ZM90.3069 14.3128C90.282 12.7413 89.7207 11.4816 88.6232 10.5337C87.5257 9.58585 86.1662 9.11191 84.5448 9.11191C83.0731 9.11191 81.8135 9.58585 80.7658 10.5337C79.7182 11.4567 79.0946 12.7163 78.895 14.3128H90.3069ZM107.9 26.8098C105.954 26.8098 104.195 26.3732 102.624 25.5002C101.052 24.6022 99.8176 23.355 98.9197 21.7586C98.0217 20.1372 97.5727 18.2664 97.5727 16.1462C97.5727 14.0508 98.0341 12.1925 98.9571 10.5711C99.88 8.94978 101.14 7.70257 102.736 6.82953C104.333 5.95649 106.116 5.51996 108.087 5.51996C110.057 5.51996 111.841 5.95649 113.437 6.82953C115.034 7.70257 116.293 8.94978 117.216 10.5711C118.139 12.1925 118.601 14.0508 118.601 16.1462C118.601 18.2415 118.127 20.0998 117.179 21.7212C116.231 23.3425 114.934 24.6022 113.287 25.5002C111.666 26.3732 109.87 26.8098 107.9 26.8098ZM107.9 23.1056C108.997 23.1056 110.02 22.8436 110.968 22.3198C111.94 21.796 112.726 21.0103 113.325 19.9626C113.924 18.9149 114.223 17.6428 114.223 16.1462C114.223 14.6495 113.936 13.3898 113.362 12.3671C112.789 11.3195 112.028 10.5337 111.08 10.0099C110.132 9.48608 109.109 9.22416 108.012 9.22416C106.914 9.22416 105.892 9.48608 104.944 10.0099C104.021 10.5337 103.285 11.3195 102.736 12.3671C102.187 13.3898 101.913 14.6495 101.913 16.1462C101.913 18.3662 102.474 20.0873 103.597 21.3096C104.744 22.5069 106.178 23.1056 107.9 23.1056Z" fill="white"/>
</svg>
