<svg width="224" height="82" viewBox="0 0 224 82" fill="none" xmlns="http://www.w3.org/2000/svg">
<path opacity="0.2" d="M37.4162 0H37.4161C16.7518 0 0 16.7518 0 37.4161V37.4162C0 58.0805 16.7518 74.8323 37.4161 74.8323H37.4162C58.0805 74.8323 74.8323 58.0805 74.8323 37.4162V37.4161C74.8323 16.7518 58.0805 0 37.4162 0Z" fill="#FA7275"/>
<path d="M82.6265 56.1238C82.6265 42.3476 71.4587 31.1797 57.6824 31.1797C43.9062 31.1797 32.7383 42.3476 32.7383 56.1238C32.7383 69.9 43.9062 81.0679 57.6824 81.0679C71.4587 81.0679 82.6265 69.9 82.6265 56.1238Z" fill="#FA7275"/>
<path d="M113.325 52.793C111.579 52.793 110.007 52.4936 108.611 51.895C107.214 51.2714 106.116 50.3983 105.318 49.2758C104.52 48.1534 104.121 46.8438 104.121 45.3472H108.685C108.785 46.4696 109.222 47.3926 109.995 48.1159C110.793 48.8393 111.903 49.201 113.325 49.201C114.797 49.201 115.944 48.8518 116.767 48.1534C117.59 47.43 118.002 46.5071 118.002 45.3846C118.002 44.5115 117.74 43.8006 117.216 43.2518C116.717 42.7031 116.081 42.279 115.308 41.9797C114.56 41.6804 113.512 41.3561 112.165 41.0069C110.469 40.5579 109.085 40.1089 108.012 39.6599C106.964 39.186 106.066 38.4626 105.318 37.4898C104.57 36.5169 104.195 35.2198 104.195 33.5985C104.195 32.1018 104.57 30.7923 105.318 29.6698C106.066 28.5473 107.114 27.6867 108.461 27.0881C109.808 26.4894 111.367 26.1901 113.138 26.1901C115.657 26.1901 117.715 26.8262 119.312 28.0983C120.933 29.3455 121.831 31.0667 122.006 33.2617H117.291C117.216 32.3139 116.767 31.5032 115.944 30.8297C115.121 30.1562 114.036 29.8194 112.689 29.8194C111.467 29.8194 110.469 30.1312 109.696 30.7549C108.922 31.3785 108.536 32.2764 108.536 33.4488C108.536 34.247 108.773 34.908 109.247 35.4319C109.746 35.9308 110.369 36.3299 111.117 36.6292C111.866 36.9285 112.888 37.2528 114.186 37.602C115.907 38.0759 117.304 38.5499 118.376 39.0238C119.474 39.4978 120.397 40.2336 121.145 41.2314C121.918 42.2042 122.305 43.5138 122.305 45.1601C122.305 46.4821 121.943 47.7293 121.22 48.9017C120.521 50.0741 119.486 51.0219 118.114 51.7453C116.767 52.4437 115.171 52.793 113.325 52.793ZM132.314 35.3945V46.8064C132.314 47.5796 132.489 48.1409 132.838 48.4901C133.212 48.8144 133.836 48.9765 134.709 48.9765H137.328V52.5311H133.961C132.04 52.5311 130.568 52.0821 129.545 51.1841C128.523 50.2861 128.011 48.8269 128.011 46.8064V35.3945H125.579V31.9148H128.011V26.7887H132.314V31.9148H137.328V35.3945H132.314ZM150.202 52.8678C148.256 52.8678 146.498 52.4313 144.926 51.5582C143.355 50.6602 142.12 49.413 141.222 47.8166C140.324 46.1952 139.875 44.3244 139.875 42.2042C139.875 40.1089 140.336 38.2506 141.259 36.6292C142.182 35.0078 143.442 33.7606 145.038 32.8876C146.635 32.0145 148.418 31.578 150.389 31.578C152.36 31.578 154.143 32.0145 155.739 32.8876C157.336 33.7606 158.596 35.0078 159.518 36.6292C160.441 38.2506 160.903 40.1089 160.903 42.2042C160.903 44.2995 160.429 46.1578 159.481 47.7792C158.533 49.4006 157.236 50.6602 155.59 51.5582C153.968 52.4313 152.172 52.8678 150.202 52.8678ZM150.202 49.1636C151.299 49.1636 152.322 48.9017 153.27 48.3779C154.243 47.854 155.029 47.0683 155.627 46.0206C156.226 44.973 156.525 43.7008 156.525 42.2042C156.525 40.7075 156.238 39.4479 155.665 38.4252C155.091 37.3775 154.33 36.5918 153.382 36.0679C152.434 35.5441 151.412 35.2822 150.314 35.2822C149.217 35.2822 148.194 35.5441 147.246 36.0679C146.323 36.5918 145.587 37.3775 145.038 38.4252C144.49 39.4479 144.215 40.7075 144.215 42.2042C144.215 44.4242 144.777 46.1454 145.899 47.3676C147.046 48.5649 148.481 49.1636 150.202 49.1636ZM169.385 34.908C170.009 33.8604 170.832 33.0497 171.854 32.476C172.902 31.8773 174.137 31.578 175.559 31.578V35.9931H174.474C172.802 35.9931 171.53 36.4172 170.657 37.2653C169.809 38.1134 169.385 39.5851 169.385 41.6804V52.5311H165.119V31.9148H169.385V34.908ZM198.375 41.7178C198.375 42.4911 198.325 43.1895 198.225 43.8131H182.473C182.597 45.4594 183.209 46.7814 184.306 47.7792C185.404 48.777 186.751 49.2758 188.347 49.2758C190.642 49.2758 192.263 48.3155 193.211 46.3948H197.813C197.19 48.2906 196.055 49.8496 194.408 51.0718C192.787 52.2691 190.767 52.8678 188.347 52.8678C186.376 52.8678 184.605 52.4313 183.034 51.5582C181.487 50.6602 180.265 49.413 179.367 47.8166C178.494 46.1952 178.058 44.3244 178.058 42.2042C178.058 40.0839 178.482 38.2256 179.33 36.6292C180.203 35.0078 181.413 33.7606 182.959 32.8876C184.531 32.0145 186.327 31.578 188.347 31.578C190.293 31.578 192.026 32.0021 193.548 32.8502C195.069 33.6983 196.254 34.8956 197.102 36.4421C197.95 37.9637 198.375 39.7223 198.375 41.7178ZM193.922 40.3708C193.897 38.7993 193.336 37.5396 192.238 36.5918C191.141 35.6439 189.781 35.17 188.16 35.17C186.688 35.17 185.429 35.6439 184.381 36.5918C183.333 37.5147 182.71 38.7744 182.51 40.3708H193.922ZM211.515 52.8678C209.569 52.8678 207.81 52.4313 206.239 51.5582C204.667 50.6602 203.433 49.413 202.535 47.8166C201.637 46.1952 201.188 44.3244 201.188 42.2042C201.188 40.1089 201.649 38.2506 202.572 36.6292C203.495 35.0078 204.755 33.7606 206.351 32.8876C207.948 32.0145 209.731 31.578 211.702 31.578C213.672 31.578 215.456 32.0145 217.052 32.8876C218.649 33.7606 219.908 35.0078 220.831 36.6292C221.754 38.2506 222.216 40.1089 222.216 42.2042C222.216 44.2995 221.742 46.1578 220.794 47.7792C219.846 49.4006 218.549 50.6602 216.903 51.5582C215.281 52.4313 213.485 52.8678 211.515 52.8678ZM211.515 49.1636C212.612 49.1636 213.635 48.9017 214.583 48.3779C215.556 47.854 216.341 47.0683 216.94 46.0206C217.539 44.973 217.838 43.7008 217.838 42.2042C217.838 40.7075 217.551 39.4479 216.977 38.4252C216.404 37.3775 215.643 36.5918 214.695 36.0679C213.747 35.5441 212.724 35.2822 211.627 35.2822C210.529 35.2822 209.507 35.5441 208.559 36.0679C207.636 36.5918 206.9 37.3775 206.351 38.4252C205.802 39.4479 205.528 40.7075 205.528 42.2042C205.528 44.4242 206.089 46.1454 207.212 47.3676C208.359 48.5649 209.793 49.1636 211.515 49.1636Z" fill="#FA7275"/>
</svg>
